<?xml version="1.0" encoding="utf-8"?>
<!-- Generator: Adobe Illustrator 22.0.1, SVG Export Plug-In . SVG Version: 6.00 Build 0)  -->
<svg version="1.1" id="Layer_1" xmlns="http://www.w3.org/2000/svg" xmlns:xlink="http://www.w3.org/1999/xlink" x="0px" y="0px"
	 viewBox="0 0 100 60" style="enable-background:new 0 0 100 60;" xml:space="preserve">
<style type="text/css">
	.st0{fill:#228292;}
	.st1{fill:#1D1D1B;}
</style>
<g>
	<path class="st0" d="M40.354881,39.187141V21.496914h6.412937c5.314705,0,8.882423,3.393457,8.882423,8.857403
		c0,5.464386-3.567719,8.832825-8.907883,8.832825H40.354881z M46.593121,35.469303c2.719681,0,4.939846-1.57185,4.939846-5.114986
		c0-3.542698-2.220165-5.139566-4.939846-5.139566h-2.295666v10.254553H46.593121z M58.473515,39.187141V21.496914h3.992611
		v17.690228H58.473515z"/>
	<path class="st0" d="M0,9.25684C0,3.742855,4.191893,0,9.13262,0c5.313828,0,7.659531,3.418478,8.233667,5.963461
		l-3.717836,1.172413c-0.274777-1.222453-1.39759-3.293379-4.515831-3.293379c-2.370285,0-5.040806,1.696509-5.040806,5.414345
		c0,3.318399,2.445783,5.239647,5.089967,5.239647c3.06908,0,4.291971-2.045907,4.641369-3.318399l3.767875,1.072774
		c-0.574135,2.445344-2.919839,6.188199-8.409244,6.188199C4.091814,18.43906,0,14.771264,0,9.25684z M28.324026,0
		c4.965307,0,9.18178,3.617757,9.18178,9.23182c0,5.589045-4.216473,9.20724-9.18178,9.20724
		c-4.990767,0-9.207239-3.618196-9.207239-9.20724C19.116787,3.617757,23.33326,0,28.324026,0z M28.324026,14.546526
		c2.444904,0,5.089968-1.646909,5.089968-5.339725c0-3.692377-2.645063-5.364305-5.089968-5.364305
		c-2.470364,0-5.115427,1.671929-5.115427,5.364305C23.208599,12.899617,25.853662,14.546526,28.324026,14.546526z"/>
	<g>
		<path class="st1" d="M0.106927,35.680439c-0.027214-0.071987-0.05399-0.305721-0.05399-0.48547
			c0-1.043144,0.782194-1.978092,2.185051-1.978092c1.33965,0,2.166616,0.872177,2.166616,1.915104
			c0,0.755199-0.404265,1.375645-1.150905,1.816341l-1.105694,0.656216c-0.170748,0.107983-0.314721,0.22496-0.395925,0.395706
			h2.697735v1.186901H0.016944c0-1.069923,0.305503-1.951096,1.375643-2.571541l0.952942-0.557457
			c0.458694-0.26973,0.63866-0.512463,0.63866-0.89917c0-0.368713-0.260731-0.692432-0.782194-0.692432
			c-0.548677,0-0.818187,0.377708-0.818187,0.863178c0,0.116978,0.017997,0.242954,0.05399,0.359715L0.106927,35.680439z"/>
		<path class="st1" d="M5.536635,34.214813c0.386269-0.58445,1.033708-0.997936,1.977871-0.997936
			c0.952942,0,1.600381,0.413486,1.987089,0.997936c0.404704,0.611446,0.512684,1.33987,0.512684,2.059074
			c0,0.719425-0.10798,1.447628-0.512684,2.059074c-0.386707,0.575455-1.034146,0.997936-1.987089,0.997936
			c-0.944163,0-1.591602-0.422482-1.977871-0.997936c-0.404704-0.611446-0.512684-1.339649-0.512684-2.059074
			C5.023951,35.554684,5.131931,34.82626,5.536635,34.214813z M6.660326,37.541771
			c0.161969,0.323719,0.422701,0.539459,0.85418,0.539459c0.440697,0,0.692211-0.21574,0.854181-0.539459
			c0.170748-0.341717,0.224738-0.80019,0.224738-1.267883c0-0.467472-0.05399-0.926167-0.224738-1.267662
			c-0.16197-0.323719-0.413484-0.53968-0.854181-0.53968c-0.431479,0-0.692211,0.215961-0.85418,0.53968
			c-0.16197,0.341496-0.21596,0.80019-0.21596,1.267662C6.444366,36.741581,6.498356,37.200054,6.660326,37.541771z"/>
		<path class="st1" d="M11.910068,39.187145v-3.794434h-1.394079v-0.944164c0.872177-0.008778,1.492841-0.503464,1.591602-1.096912
			h1.214113v5.83551H11.910068z"/>
		<path class="st1" d="M14.408524,37.604538c0-0.602226,0.377929-1.177677,0.989374-1.420631
			c-0.602667-0.21574-0.881395-0.818188-0.881395-1.276665c0-0.980156,0.881395-1.690365,2.14028-1.690365
			c1.267664,0,2.148619,0.710209,2.148619,1.690365c0,0.458477-0.287506,1.060925-0.890173,1.276665
			c0.611446,0.242954,0.998154,0.818405,0.998154,1.420631c0,1.02515-0.926167,1.717579-2.256599,1.717579
			C15.33469,39.322117,14.408524,38.629688,14.408524,37.604538z M17.528959,37.442791
			c0-0.359715-0.269949-0.746201-0.872177-0.746201c-0.593449,0-0.863399,0.386486-0.863399,0.746201
			c0,0.350712,0.296725,0.72842,0.863399,0.72842C17.232235,38.171211,17.528959,37.793503,17.528959,37.442791z
			 M17.402983,35.015224c0-0.305725-0.260731-0.629444-0.746201-0.629444c-0.485909,0-0.746639,0.323719-0.746639,0.629444
			c0,0.350494,0.242735,0.674213,0.746639,0.683212C17.169027,35.689438,17.402983,35.365719,17.402983,35.015224z"/>
	</g>
	<path class="st1" d="M22.243526,59.894966V42.204742h6.412937c5.314705,0,8.882423,3.393456,8.882423,8.857403
		c0,5.464382-3.567719,8.832821-8.907883,8.832821H22.243526z M28.481764,56.177132c2.719683,0,4.939848-1.57185,4.939848-5.114986
		c0-3.542698-2.220165-5.139568-4.939848-5.139568H26.1861v10.254555H28.481764z M40.36216,59.894966V42.204742h11.203545v3.717834
		h-7.260971v3.368h6.587635v3.468517h-6.587635v3.393017h7.285553v3.742855H40.36216z"/>
	<g>
		<path class="st1" d="M65.46402,46.427925v-4.142952h0.934944v4.142952H65.46402z"/>
		<path class="st1" d="M67.234268,46.427925v-2.904037h0.84716v0.332718c0.146164-0.256344,0.520149-0.420506,0.835747-0.420506
			c0.414795,0,0.712837,0.16943,0.859009,0.45562c0.227806-0.326572,0.508293-0.45562,0.899826-0.45562
			c0.549118,0,1.074966,0.321304,1.074966,1.110519v1.881306H70.89241v-1.682903c0-0.274776-0.146164-0.490738-0.461769-0.490738
			c-0.315598,0-0.485031,0.239662-0.485031,0.496883v1.676758h-0.876564v-1.682903c0-0.274776-0.146164-0.490738-0.467468-0.490738
			c-0.309456,0-0.479324,0.239662-0.479324,0.503029v1.670612H67.234268z"/>
		<path class="st1" d="M72.49894,46.427925v-2.904037h0.847153v0.332718c0.146172-0.256344,0.520149-0.420506,0.835747-0.420506
			c0.414803,0,0.712845,0.16943,0.859009,0.45562c0.227814-0.326572,0.508293-0.45562,0.899834-0.45562
			c0.54911,0,1.074966,0.321304,1.074966,1.110519v1.881306h-0.858574v-1.682903c0-0.274776-0.146164-0.490738-0.461761-0.490738
			c-0.315605,0-0.485031,0.239662-0.485031,0.496883v1.676758H74.33371v-1.682903c0-0.274776-0.146164-0.490738-0.467468-0.490738
			c-0.309456,0-0.479324,0.239662-0.479324,0.503029v1.670612H72.49894z"/>
		<path class="st1" d="M78.447472,44.751167l0.683434-0.105347c0.157578-0.023701,0.210251-0.099201,0.210251-0.198402
			c0-0.16943-0.145729-0.316036-0.426651-0.316036c-0.309448,0-0.478882,0.210693-0.496437,0.426651l-0.771225-0.157143
			c0.035118-0.415237,0.420509-0.96479,1.273811-0.96479c0.940651,0,1.28566,0.525852,1.28566,1.121933v1.420414
			c0,0.227375,0.028969,0.420509,0.034676,0.449478h-0.800194c-0.006142-0.022827-0.029404-0.12817-0.029404-0.32745
			c-0.151878,0.245808-0.432358,0.409092-0.818192,0.409092c-0.636902,0-1.004738-0.420506-1.004738-0.882271
			C77.588463,45.113735,77.968147,44.8214,78.447472,44.751167z M79.341156,45.288433v-0.12817l-0.54911,0.087788
			c-0.186989,0.028969-0.327454,0.116756-0.327454,0.321304c0,0.151875,0.09964,0.297604,0.345009,0.297604
			C79.072525,45.866959,79.341156,45.738785,79.341156,45.288433z"/>
		<path class="st1" d="M81.514801,46.369984c0.058372,0.280045,0.292336,0.484592,0.625053,0.484592
			c0.444206,0,0.718987-0.215958,0.718987-0.74181v-0.134319c-0.105347,0.157143-0.356422,0.326572-0.777367,0.326572
			c-0.771225,0-1.349747-0.607494-1.349747-1.413391c0-0.765514,0.55526-1.420414,1.349747-1.420414
			c0.473618,0,0.724693,0.210693,0.806335,0.362564v-0.309891h0.847595v2.542351c0,0.834866-0.467476,1.559998-1.554291,1.559998
			c-0.835747,0-1.367744-0.514439-1.449387-1.034145L81.514801,46.369984z M82.86454,44.891628
			c0-0.397682-0.286186-0.643486-0.619347-0.643486c-0.333153,0-0.625046,0.245804-0.625046,0.643486
			c0,0.396805,0.268631,0.642612,0.625046,0.642612C82.607323,45.534241,82.86454,45.288433,82.86454,44.891628z"/>
		<path class="st1" d="M84.920982,42.115543c0.292336,0,0.525856,0.233955,0.525856,0.520145s-0.233521,0.520145-0.525856,0.520145
			c-0.280479,0-0.514-0.233955-0.514-0.520145S84.640503,42.115543,84.920982,42.115543z M84.482918,46.427925v-2.904037h0.887985
			v2.904037H84.482918z"/>
		<path class="st1" d="M87.036247,46.427925H86.14827v-2.904037h0.859009v0.332718
			c0.157578-0.273899,0.514-0.408218,0.812035-0.408218c0.7304,0,1.057854,0.519711,1.057854,1.156174v1.823364h-0.88842v-1.670612
			c0-0.287067-0.151871-0.503029-0.473175-0.503029c-0.292336,0-0.479324,0.215961-0.479324,0.508297V46.427925z"/>
		<path class="st1" d="M90.308556,44.751167l0.683434-0.105347c0.157578-0.023701,0.210251-0.099201,0.210251-0.198402
			c0-0.16943-0.145729-0.316036-0.426651-0.316036c-0.309456,0-0.478889,0.210693-0.496445,0.426651l-0.771217-0.157143
			c0.03511-0.415237,0.420502-0.96479,1.273804-0.96479c0.940659,0,1.28566,0.525852,1.28566,1.121933v1.420414
			c0,0.227375,0.028976,0.420509,0.034683,0.449478H91.30188c-0.006149-0.022827-0.029411-0.12817-0.029411-0.32745
			c-0.151871,0.245808-0.432358,0.409092-0.818184,0.409092c-0.636909,0-1.004738-0.420506-1.004738-0.882271
			C89.449547,45.113735,89.829231,44.8214,90.308556,44.751167z M91.20224,45.288433v-0.12817l-0.549118,0.087788
			c-0.186989,0.028969-0.327446,0.116756-0.327446,0.321304c0,0.151875,0.09964,0.297604,0.345009,0.297604
			C90.933609,45.866959,91.20224,45.738785,91.20224,45.288433z"/>
		<path class="st1" d="M94.661537,44.40089c-0.09964-0.023701-0.19313-0.029846-0.280479-0.029846
			c-0.356422,0-0.678169,0.210693-0.678169,0.789219v1.267662h-0.887978v-2.904037h0.859009v0.391537
			c0.151871-0.327454,0.520149-0.420509,0.753662-0.420509c0.087791,0,0.175575,0.011414,0.233955,0.028973V44.40089z"/>
		<path class="st1" d="M97.805237,45.592178c-0.140022,0.503029-0.601784,0.923534-1.337891,0.923534
			c-0.800629,0-1.513474-0.57238-1.513474-1.548584c0-0.934948,0.695282-1.531029,1.448944-1.531029
			c0.899834,0,1.455093,0.555698,1.455093,1.490643c0,0.122028-0.011848,0.256344-0.017555,0.273903h-2.021767
			c0.017555,0.32745,0.315598,0.560966,0.660172,0.560966c0.321304,0,0.502586-0.151875,0.584229-0.379246L97.805237,45.592178z
			 M96.998901,44.628265c-0.011848-0.222107-0.163727-0.490738-0.584229-0.490738c-0.373978,0-0.560966,0.274776-0.578529,0.490738
			H96.998901z"/>
		<path class="st1" d="M65.224358,51.107922c0-1.291367,0.981911-2.168373,2.138962-2.168373
			c1.2444,0,1.793953,0.800629,1.928268,1.396713l-0.870857,0.274776c-0.064087-0.28619-0.327011-0.77166-1.057411-0.77166
			c-0.55526,0-1.180756,0.397682-1.180756,1.268543c0,0.776924,0.572823,1.226402,1.192169,1.226402
			c0.718987,0,1.005173-0.478447,1.086823-0.776928l0.882706,0.251076c-0.13475,0.573257-0.683868,1.449387-1.969528,1.449387
			C66.182564,53.257858,65.224358,52.399288,65.224358,51.107922z"/>
		<path class="st1" d="M72.698219,51.715416c0,0.89983-0.67202,1.542442-1.542885,1.542442
			c-0.864716,0-1.542442-0.642612-1.542442-1.542442s0.677727-1.537174,1.542442-1.537174
			C72.026199,50.178242,72.698219,50.815586,72.698219,51.715416z M71.809799,51.715416
			c0-0.490738-0.315598-0.718987-0.654465-0.718987c-0.333153,0-0.654457,0.228249-0.654457,0.718987
			c0,0.484592,0.321304,0.724255,0.654457,0.724255C71.494202,52.439671,71.809799,52.206154,71.809799,51.715416z"/>
		<path class="st1" d="M74.158577,53.170067h-0.887978v-2.904037h0.859009v0.332718
			c0.157578-0.273899,0.514-0.408215,0.812042-0.408215c0.730392,0,1.057846,0.519707,1.057846,1.156174v1.82336h-0.88842v-1.670612
			c0-0.287067-0.151871-0.503025-0.473175-0.503025c-0.292336,0-0.479324,0.215958-0.479324,0.508293V53.170067z"/>
		<path class="st1" d="M79.604523,52.65036c0,0.262489,0.017555,0.455624,0.023262,0.519707h-0.853302
			c-0.005707-0.035114-0.023262-0.163284-0.023262-0.280045c-0.134315,0.198402-0.426651,0.344131-0.776924,0.344131
			c-0.818192,0-1.437538-0.630322-1.437538-1.524883c0-0.864716,0.584236-1.51347,1.408127-1.51347
			c0.49688,0,0.712845,0.186989,0.783073,0.298481v-1.554733h0.876564V52.65036z M78.084908,52.439671
			c0.345009,0,0.6549-0.24493,0.6549-0.724255c0-0.48547-0.309891-0.718987-0.6549-0.718987
			c-0.344566,0-0.654022,0.233517-0.654022,0.718987C77.430885,52.19474,77.740341,52.439671,78.084908,52.439671z"/>
		<path class="st1" d="M80.842781,48.857906c0.292336,0,0.526291,0.233517,0.526291,0.519707s-0.233955,0.520584-0.526291,0.520584
			c-0.280487,0-0.514-0.234394-0.514-0.520584S80.562294,48.857906,80.842781,48.857906z M80.404716,53.170067v-2.904037h0.887978
			v2.904037H80.404716z"/>
		<path class="st1" d="M83.823189,53.170067H82.92907L81.7369,50.266029h0.964355l0.67202,1.805805l0.619347-1.805805h0.934944
			L83.823189,53.170067z"/>
		<path class="st1" d="M85.815552,48.857906c0.292328,0,0.525848,0.233517,0.525848,0.519707s-0.233521,0.520584-0.525848,0.520584
			c-0.280487,0-0.514008-0.234394-0.514008-0.520584S85.535065,48.857906,85.815552,48.857906z M85.377487,53.170067v-2.904037
			h0.887978v2.904037H85.377487z"/>
		<path class="st1" d="M89.900337,52.65036c0,0.262489,0.017563,0.455624,0.023262,0.519707h-0.853302
			c-0.005707-0.035114-0.023262-0.163284-0.023262-0.280045c-0.134315,0.198402-0.426651,0.344131-0.776924,0.344131
			c-0.818192,0-1.437538-0.630322-1.437538-1.524883c0-0.864716,0.584236-1.51347,1.408127-1.51347
			c0.49688,0,0.712845,0.186989,0.783073,0.298481v-1.554733h0.876564V52.65036z M88.380722,52.439671
			c0.345009,0,0.6549-0.24493,0.6549-0.724255c0-0.48547-0.309891-0.718987-0.6549-0.718987
			c-0.344566,0-0.654022,0.233517-0.654022,0.718987C87.7267,52.19474,88.036156,52.439671,88.380722,52.439671z"/>
		<path class="st1" d="M93.341644,52.334324c-0.140022,0.503025-0.601791,0.923534-1.337898,0.923534
			c-0.800629,0-1.513466-0.57238-1.513466-1.548588c0-0.934944,0.695282-1.531029,1.448944-1.531029
			c0.899826,0,1.455093,0.555702,1.455093,1.490646c0,0.122025-0.011856,0.25634-0.017563,0.273899h-2.021767
			c0.017563,0.32745,0.315605,0.560966,0.660172,0.560966c0.321304,0,0.502586-0.151875,0.584671-0.379246L93.341644,52.334324z
			 M92.535309,51.370407c-0.011856-0.222103-0.163727-0.490738-0.584236-0.490738c-0.373978,0-0.560966,0.27478-0.578522,0.490738
			H92.535309z"/>
		<path class="st1" d="M95.813324,51.143036c-0.09964-0.023705-0.193138-0.02985-0.280487-0.02985
			c-0.356422,0-0.678162,0.210693-0.678162,0.789219v1.267662h-0.887978v-2.904037h0.859009v0.391537
			c0.151871-0.32745,0.520142-0.420506,0.753662-0.420506c0.087784,0,0.175575,0.011414,0.233955,0.028969V51.143036z"/>
		<path class="st1" d="M98.957024,52.334324c-0.140022,0.503025-0.601791,0.923534-1.337898,0.923534
			c-0.800629,0-1.513466-0.57238-1.513466-1.548588c0-0.934944,0.695282-1.531029,1.448944-1.531029
			c0.899834,0,1.455093,0.555702,1.455093,1.490646c0,0.122025-0.011856,0.25634-0.017563,0.273899h-2.021759
			c0.017555,0.32745,0.315598,0.560966,0.660164,0.560966c0.321304,0,0.502586-0.151875,0.584236-0.379246L98.957024,52.334324z
			 M98.150688,51.370407c-0.011856-0.222103-0.163727-0.490738-0.584236-0.490738c-0.373978,0-0.560966,0.27478-0.578522,0.490738
			H98.150688z"/>
		<path class="st1" d="M66.714561,58.36977h-0.327446v1.542442H65.46402v-4.142731h1.642082
			c0.818184,0,1.34404,0.560966,1.34404,1.297512c0,0.560966-0.309898,0.987617-0.818192,1.168461l0.841454,1.676758h-1.016586
			L66.714561,58.36977z M66.930527,57.575287c0.380119,0,0.584663-0.210693,0.584663-0.503029
			c0-0.309013-0.204544-0.502148-0.584663-0.502148h-0.543411v1.005177H66.930527z"/>
		<path class="st1" d="M71.652222,59.076466C71.512199,59.579494,71.05043,60,70.314323,60
			c-0.800629,0-1.513474-0.57238-1.513474-1.548588c0-0.934944,0.69529-1.531025,1.448952-1.531025
			c0.899826,0,1.455093,0.555698,1.455093,1.490643c0,0.122028-0.011856,0.256344-0.017563,0.273903h-2.021767
			c0.017563,0.32745,0.315605,0.560966,0.660172,0.560966c0.321304,0,0.502586-0.151875,0.584229-0.379246L71.652222,59.076466z
			 M70.845886,58.112553c-0.011856-0.222107-0.163727-0.490738-0.584236-0.490738c-0.373978,0-0.560966,0.274776-0.578522,0.490738
			H70.845886z"/>
		<path class="st1" d="M72.960701,58.235455l0.683876-0.105347c0.15802-0.023701,0.210251-0.099201,0.210251-0.198402
			c0-0.16943-0.146172-0.316036-0.426216-0.316036c-0.309891,0-0.479324,0.210693-0.49688,0.426651l-0.771217-0.157143
			c0.03511-0.415237,0.420502-0.96479,1.273804-0.96479c0.940659,0,1.28566,0.525852,1.28566,1.121933v1.420414
			c0,0.227371,0.028976,0.420506,0.034683,0.449478h-0.800194c-0.006149-0.022827-0.029411-0.12817-0.029411-0.32745
			c-0.151871,0.245808-0.432358,0.409092-0.818184,0.409092c-0.636909,0-1.004738-0.420506-1.004738-0.882271
			C72.102135,58.598019,72.481819,58.305687,72.960701,58.235455z M73.854828,58.77272v-0.128174l-0.549118,0.087791
			c-0.186989,0.028969-0.327446,0.116756-0.327446,0.321304c0,0.151875,0.09964,0.297604,0.345009,0.297604
			C73.586197,59.351246,73.854828,59.223072,73.854828,58.77272z"/>
		<path class="st1" d="M75.467499,59.912212v-4.230518h0.887978v4.230518H75.467499z"/>
		<path class="st1" d="M77.576614,55.600048c0.292336,0,0.525848,0.233517,0.525848,0.519707s-0.233513,0.520584-0.525848,0.520584
			c-0.280487,0-0.514-0.234394-0.514-0.520584S77.296127,55.600048,77.576614,55.600048z M77.13855,59.912212v-2.904037h0.887978
			v2.904037H77.13855z"/>
		<path class="st1" d="M78.622612,59.912212v-0.783073l1.279953-1.361595H78.65773v-0.759369h2.378181v0.730396l-1.337891,1.408127
			h1.361595v0.765514H78.622612z"/>
		<path class="st1" d="M81.509094,59.912212v-0.783073l1.279953-1.361595h-1.244843v-0.759369h2.378189v0.730396l-1.337898,1.408127
			h1.361603v0.765514H81.509094z"/>
		<path class="st1" d="M85.284431,58.235455l0.683426-0.105347c0.157585-0.023701,0.210258-0.099201,0.210258-0.198402
			c0-0.16943-0.145729-0.316036-0.426651-0.316036c-0.309456,0-0.478889,0.210693-0.496445,0.426651l-0.771217-0.157143
			c0.03511-0.415237,0.420502-0.96479,1.273804-0.96479c0.940651,0,1.28566,0.525852,1.28566,1.121933v1.420414
			c0,0.227371,0.028969,0.420506,0.034676,0.449478h-0.800186c-0.006149-0.022827-0.029411-0.12817-0.029411-0.32745
			c-0.151871,0.245808-0.432358,0.409092-0.818184,0.409092c-0.636909,0-1.004738-0.420506-1.004738-0.882271
			C84.425423,58.598019,84.805107,58.305687,85.284431,58.235455z M86.178116,58.77272v-0.128174l-0.549118,0.087791
			c-0.186989,0.028969-0.327454,0.116756-0.327454,0.321304c0,0.151875,0.09964,0.297604,0.345009,0.297604
			C85.909485,59.351246,86.178116,59.223072,86.178116,58.77272z"/>
		<path class="st1" d="M89.637413,57.885178c-0.09964-0.023701-0.193138-0.029846-0.280487-0.029846
			c-0.356415,0-0.678162,0.210693-0.678162,0.789215v1.267666h-0.887978v-2.904037h0.859009v0.391537
			c0.151871-0.327454,0.520142-0.420509,0.753662-0.420509c0.087791,0,0.175575,0.011414,0.233955,0.028973V57.885178z"/>
		<path class="st1" d="M92.781113,59.076466C92.64109,59.579494,92.179321,60,91.443222,60
			c-0.800636,0-1.513474-0.57238-1.513474-1.548588c0-0.934944,0.695282-1.531025,1.448944-1.531025
			c0.899834,0,1.455093,0.555698,1.455093,1.490643c0,0.122028-0.011848,0.256344-0.017555,0.273903h-2.021767
			c0.017555,0.32745,0.315598,0.560966,0.660164,0.560966c0.321312,0,0.502594-0.151875,0.584236-0.379246L92.781113,59.076466z
			 M91.974777,58.112553c-0.011848-0.222107-0.163727-0.490738-0.584229-0.490738c-0.373978,0-0.560974,0.274776-0.578529,0.490738
			H91.974777z"/>
	</g>
</g>
</svg>
